# xmcd CD database file
#
# Track frame offsets:
#	150
#	25289
#	47379
#	69130
#	89652
#	108867
#	127439
#	159294
#	186403
#	210005
#	231750
#	254359
#	275401
#	310023
#	332297
#
# Disc length: 4787 seconds
#
# Revision: 0
# Processed by: cddbd v1.5.2PL0 Copyright (c) Steve Scherf et al.
# Submitted via: CDex 1.70beta2
#
DISCID=c212b10f
DTITLE=Various Artist - 101 Jazz Diamonds CD6
DYEAR=2009
DGENRE=Jazz
TTITLE0=Miles Davis - Time After Time
TTITLE1=Dexter Gordon - How Insensitive
TTITLE2=George Duke - Summer Breezin'
TTITLE3=Stanley Clarke - Lisa
TTITLE4=Grover Washington Jr. - Soulful Strut
TTITLE5=George Benson - I Remember Wes
TTITLE6=Don Braden - Saving All My Love For You
TTITLE7=Peter White - Caravan Of Dreams
TTITLE8=Gato Barbieri - Mystica
TTITLE9=Greg Adams - Burma Road
TTITLE10=Lee Ritenour - Fly By Night
TTITLE11=Hank Crawford - Sugar Free
TTITLE12=Dezter Gordon - Laura
TTITLE13=Rodney Franklin - The Groove
TTITLE14=Weather Report - Birdland
EXTD=YEAR: 2009
EXTT0=
EXTT1=
EXTT2=
EXTT3=
EXTT4=
EXTT5=
EXTT6=
EXTT7=
EXTT8=
EXTT9=
EXTT10=
EXTT11=
EXTT12=
EXTT13=
EXTT14=
PLAYORDER=
